<mxfile host="app.diagrams.net" modified="2023-05-17T17:01:00.067Z" agent="Mozilla/5.0 (Windows NT 10.0; Win64; x64) AppleWebKit/537.36 (KHTML, like Gecko) Chrome/113.0.0.0 Safari/537.36" etag="v792sWjwRSY92Afo1w3I" version="21.2.9" type="github">
  <diagram name="PÃ¡gina-1" id="qQL7vK5yumqpfY1hVFyP">
    <mxGraphModel dx="1050" dy="665" grid="1" gridSize="10" guides="1" tooltips="1" connect="1" arrows="1" fold="1" page="1" pageScale="1" pageWidth="827" pageHeight="1169" math="0" shadow="0">
      <root>
        <mxCell id="0" />
        <mxCell id="1" parent="0" />
        <mxCell id="BDNlaQzzMUebrEuXNI84-1" value="&lt;font style=&quot;font-size: 48px;&quot;&gt;57&lt;/font&gt;" style="rounded=1;whiteSpace=wrap;html=1;" vertex="1" parent="1">
          <mxGeometry x="100" y="200" width="260" height="130" as="geometry" />
        </mxCell>
        <mxCell id="BDNlaQzzMUebrEuXNI84-3" style="edgeStyle=orthogonalEdgeStyle;rounded=0;orthogonalLoop=1;jettySize=auto;html=1;entryX=0.5;entryY=0;entryDx=0;entryDy=0;" edge="1" parent="1" source="BDNlaQzzMUebrEuXNI84-2" target="BDNlaQzzMUebrEuXNI84-1">
          <mxGeometry relative="1" as="geometry" />
        </mxCell>
        <mxCell id="BDNlaQzzMUebrEuXNI84-2" value="&lt;font style=&quot;font-size: 24px;&quot;&gt;miVariable&lt;/font&gt;" style="text;html=1;align=center;verticalAlign=middle;resizable=0;points=[];autosize=1;strokeColor=none;fillColor=none;" vertex="1" parent="1">
          <mxGeometry x="160" y="123" width="140" height="40" as="geometry" />
        </mxCell>
      </root>
    </mxGraphModel>
  </diagram>
</mxfile>
